***************************************************************

[IMG]http://www.hotimg.org/images/67363952943939111394.png[/IMG]

***************************************************************

[IMG]http://www.hotimg.org/images/73182957889474909061.jpg[/IMG]

***************************************************************

FILM TITLE: The Sorcerer and the White Snake (2011) Bai she chuan shuo (original title)

***************************************************************

Genre:  Action | Fantasy   

Release: 28 September 2011 (China)

Director: Siu-Tung Ching

Writer: 

Stars:  Jet Li, Shengyi Huang and Raymond Lam

Country: China | Hong Kong 

Language: Mandarin

Plot:
fantasy film based on an old Chinese legend about an herbalist 
who falls in love with a thousand-year-old White Snake disguised 
as a woman.

IMDB Rating: 5.7/10 from 1,754 users 
 
http://www.imdb.com/title/tt1857913/

****************************************************************

[URL=http://www.hotimg.org/viewer.php?file=59666701043079948701.png][IMG]http://www.hotimg.org/images/59666701043079948701_thumb.png[/IMG][/URL]
[URL=http://www.hotimg.org/viewer.php?file=06407683272195247340.png][IMG]http://www.hotimg.org/images/06407683272195247340_thumb.png[/IMG][/URL]
[URL=http://www.hotimg.org/viewer.php?file=45963409348274172799.png][IMG]http://www.hotimg.org/images/45963409348274172799_thumb.png[/IMG][/URL]
[URL=http://www.hotimg.org/viewer.php?file=78446078734935366970.png][IMG]http://www.hotimg.org/images/78446078734935366970_thumb.png[/IMG][/URL]
[URL=http://www.hotimg.org/viewer.php?file=74073306007170999660.png][IMG]http://www.hotimg.org/images/74073306007170999660_thumb.png[/IMG][/URL]

****************************************************************

General
Complete name                    : The Sorcerer And The White Snake 2011 720p BDRip XviD ac3 eng-hardsub (avi) [GREYSHADOW].avi
Format                           : AVI
Format/Info                      : Audio Video Interleave
Format profile                   : OpenDML
File size                        : 3.66 GiB
Duration                         : 1h 42mn
Overall bit rate                 : 5137 Kbps
Writing library                  : VirtualDub build 32842/release

Video
ID                               : 0
Format                           : MPEG-4 Visual
Format profile                   : Simple@L5
Format settings, BVOP            : No
Format settings, QPel            : No
Format settings, GMC             : No warppoints
Format settings, Matrix          : Default (H.263)
Codec ID                         : XVID
Codec ID/Hint                    : XviD
Duration                         : 1h 42mn
Bit rate                         : 4487 Kbps
Width                            : 1280 pixels
Height                           : 528 pixels
Display aspect ratio             : 2.40:1
Frame rate                       : 24.000 fps
Color space                      : YUV
Chroma subsampling               : 4:2:0
Bit depth                        : 8 bits
Scan type                        : Progressive
Compression mode                 : Lossy
Bits/(Pixel*Frame)               : 0.277
Stream size                      : 3.20 GiB (87%)
Writing library                  : XviD 64

Audio
ID                               : 1
Format                           : AC-3
Format/Info                      : Audio Coding 3
Mode extension                   : CM (complete main)
Codec ID                         : 2000
Duration                         : 1h 42mn
Bit rate mode                    : Constant
Bit rate                         : 640 Kbps
Channel(s)                       : 6 channels
Channel positions                : Front: L C R, Side: L R, LFE
Sampling rate                    : 48.0 KHz
Bit depth                        : 16 bits
Compression mode                 : Lossy
Stream size                      : 468 MiB (12%)
Alignment                        : Aligned on interleaves
Interleave, duration             : 42 ms (1.00 video frame)
Interleave, preload duration     : 512 ms

****************************************************************

Video Source: The Sorcerer And The Whitesnake 2011 BluRay 1080p AVC DTS-HD MA5.1-CHDBits

Thanks: chdbits.org

****************************************************************

I provide a small sample, so please download this to check your 
compatibility first if you are unsure.

****************************************************************

I am providing tutorials here :- 
http://tutorials4all.freeforums.org/index.php?sid=fb109f91dedb2901c4d0b39625c431f7
This is for opening my mkv encodes, remuxing to Bluray for PS3 or mkv or mp4 with 
additional or selected audio or subtitles which I will now start supplying, so if your
fed up finding the right encode to match your player - DO IT YOURSELF - it's simples.

I allow transfer of my encodes to any site, just give me credit (Thanks: GREYSHADOW)

****************************************************************